<?xml version="1.0" standalone="no"?>
<!DOCTYPE svg PUBLIC "-//W3C//DTD SVG 20010904//EN"
 "http://www.w3.org/TR/2001/REC-SVG-20010904/DTD/svg10.dtd">
<svg version="1.0" xmlns="http://www.w3.org/2000/svg"
 width="256.000000pt" height="256.000000pt" viewBox="0 0 256.000000 256.000000"
 preserveAspectRatio="xMidYMid meet">
<metadata>
Created by potrace 1.14, written by Peter Selinger 2001-2017
</metadata>
<g transform="translate(0.000000,256.000000) scale(0.100000,-0.100000)"
fill="#000000" stroke="none">
<path d="M1931 1640 c-2 -8 -5 -35 -7 -59 -5 -52 -14 -67 -14 -25 0 22 -3 26
-10 14 -7 -11 -10 -6 -11 20 -1 28 -3 24 -13 -24 -10 -56 -12 -58 -23 -35 -7
13 -14 33 -16 44 -3 11 -5 -18 -6 -65 -2 -85 -2 -85 -16 -47 -16 46 -25 57
-26 34 -1 -9 -3 -21 -4 -27 -1 -5 -4 -25 -5 -42 l-2 -33 -8 30 c-4 17 -9 24
-10 18 -1 -7 -4 -17 -5 -23 -1 -5 -3 -15 -4 -21 0 -5 -5 -7 -11 -4 -5 3 -10
-3 -10 -14 0 -11 -4 -22 -8 -25 -5 -3 -8 33 -8 80 1 110 -9 138 -18 52 -8 -68
-21 -88 -29 -45 -4 19 -4 19 -6 -5 -3 -58 -16 -32 -18 35 -2 130 -3 140 -8
136 -2 -3 -7 -23 -10 -44 -3 -22 -7 -49 -9 -60 -3 -11 -5 -33 -6 -50 l-2 -30
-8 30 c-8 31 -9 29 -15 -34 -1 -13 -8 -27 -15 -31 -7 -4 -10 -12 -7 -17 3 -5
2 -15 -4 -23 -6 -11 -9 -1 -10 30 -2 99 -19 193 -19 109 0 -26 -3 -30 -10 -19
-8 12 -10 9 -10 -12 0 -16 -5 -28 -11 -28 -5 0 -9 8 -8 18 1 9 0 42 -1 72 -2
49 -3 51 -9 20 -3 -19 -6 -56 -6 -82 0 -26 -4 -44 -9 -41 -5 4 -6 -1 -3 -11 5
-11 3 -16 -5 -14 -11 4 -13 23 -17 143 -2 46 -3 49 -16 31 -14 -19 -15 -17
-15 19 0 21 -3 35 -6 32 -8 -8 -11 -41 -14 -152 l-2 -80 -10 48 c-13 58 -23
61 -22 4 0 -23 -4 -45 -10 -49 -5 -3 -10 -20 -11 -37 -1 -17 -4 -34 -8 -37 -8
-8 -57 45 -57 61 0 16 -35 47 -43 38 -4 -3 -7 2 -7 13 0 14 -2 16 -9 5 -12
-19 -18 -4 -26 72 -7 63 -25 95 -25 43 0 -33 -10 -57 -21 -50 -8 5 -14 -24
-10 -54 1 -7 -4 -11 -11 -10 -8 2 -14 -9 -16 -27 -2 -16 -8 -34 -13 -40 -7 -7
-10 -7 -8 0 2 9 -1 41 -18 155 -6 43 -13 52 -14 19 0 -13 -2 -33 -4 -44 -3
-11 -5 -34 -7 -52 -1 -17 -6 -29 -10 -27 -5 3 -11 -3 -14 -13 -3 -10 -10 -27
-15 -38 -8 -18 -9 -18 -8 5 2 54 -1 143 -5 139 -6 -6 -14 -56 -15 -94 -1 -23
-3 -27 -11 -15 -8 12 -11 11 -16 -8 -11 -39 -21 -7 -23 71 -1 39 -4 73 -6 75
-2 2 -9 -32 -16 -75 -8 -43 -15 -68 -17 -55 -3 22 -4 23 -17 5 -13 -17 -14
-16 -15 12 -4 86 -16 91 -25 11 -3 -36 -12 -69 -18 -72 -7 -4 -9 -4 -5 0 9 10
-12 67 -22 61 -5 -3 -11 -1 -15 5 -11 17 -23 11 -29 -15 -9 -36 -22 -24 -37
35 -12 46 -28 67 -29 38 -2 -48 -14 -96 -29 -111 -17 -18 -18 -17 -16 17 2 20
-1 36 -6 36 -5 0 -9 -11 -9 -24 0 -14 -4 -36 -9 -49 -10 -25 -40 -43 -50 -30
-3 4 -20 8 -38 8 -22 -1 -42 8 -62 27 -16 15 -32 24 -35 20 -4 -3 -10 4 -13
17 l-6 24 -18 -24 c-16 -20 -19 -21 -20 -6 -1 9 -3 22 -4 27 -1 6 -3 26 -4 47
0 20 -4 33 -9 29 -4 -4 -7 -11 -7 -14 -4 -49 -18 -103 -25 -92 -6 9 -10 8 -19
-6 -6 -11 -11 -17 -11 -14 -16 120 -24 128 -40 46 -8 -36 -17 -66 -22 -66 -4
0 -8 5 -8 10 0 6 -4 10 -10 10 -5 0 -10 -7 -10 -14 0 -21 -44 -66 -64 -66 -9
0 -16 -4 -16 -10 0 -5 7 -10 16 -10 19 0 54 -34 71 -70 9 -19 12 -21 12 -7 2
40 20 12 31 -48 13 -67 24 -78 28 -26 2 32 20 85 21 64 1 -7 8 -13 16 -13 15
0 18 -10 30 -84 8 -49 11 -44 19 28 7 70 10 75 27 45 11 -21 13 -22 18 -6 4
10 10 18 15 17 4 -1 16 9 27 21 10 12 19 18 19 13 0 -5 4 -3 9 5 9 14 23 18
89 22 40 3 43 -1 49 -53 7 -59 22 -84 18 -30 -2 37 -1 40 15 32 12 -6 20 -27
25 -65 8 -64 17 -64 35 0 15 55 27 65 36 30 7 -28 14 -31 32 -13 7 7 12 8 13
2 0 -5 9 9 19 31 l19 40 1 -35 c1 -19 3 -39 5 -45 1 -5 3 -23 3 -39 3 -50 19
-9 22 54 1 24 1 24 15 6 15 -19 15 -19 16 5 1 19 3 16 10 -11 4 -19 10 -52 13
-73 7 -60 16 -56 17 6 1 52 3 74 8 110 1 6 7 1 12 -13 8 -20 12 -22 19 -10 8
12 10 10 11 -10 7 -113 12 -119 18 -20 6 80 7 83 17 50 6 -19 16 -34 23 -33 7
2 11 -13 12 -37 1 -22 3 -44 4 -50 1 -5 3 -22 4 -37 2 -56 13 -12 27 115 7 63
24 69 24 9 0 -16 4 -26 9 -23 10 7 21 -17 21 -45 0 -11 4 -18 9 -15 5 3 12
-10 15 -29 8 -40 26 -56 26 -23 1 31 10 100 16 118 4 13 6 13 14 0 8 -13 10
-12 10 2 0 12 5 15 17 11 10 -4 14 -2 10 4 -4 6 0 13 8 17 8 3 15 12 15 19 0
18 48 70 58 63 4 -2 8 -17 7 -33 0 -15 3 -31 7 -34 5 -3 10 -25 13 -49 5 -48
15 -67 15 -29 0 13 5 31 10 39 7 11 10 -6 11 -55 3 -131 4 -145 11 -145 5 0 8
17 8 37 0 35 1 36 15 17 13 -17 14 -15 16 36 3 125 6 144 17 146 7 1 8 0 3 -2
-6 -3 -7 -12 -4 -20 3 -7 8 -12 12 -9 4 2 8 -2 8 -10 0 -8 -5 -11 -10 -8 -6 4
-7 1 -1 -8 5 -8 10 -36 11 -63 2 -27 5 -52 8 -54 4 -5 7 35 8 130 1 44 17 21
18 -25 0 -33 2 -38 9 -22 7 16 9 12 9 -19 1 -22 4 -36 8 -33 6 6 8 31 13 157
1 25 4 38 7 30 2 -8 7 -22 10 -30 3 -8 7 -19 8 -25 1 -5 3 -13 5 -17 4 -13 7
-27 10 -45 1 -13 4 -11 9 6 5 18 10 -1 20 -67 8 -51 15 -91 17 -89 2 1 5 44 7
95 2 51 7 95 10 99 4 3 7 -7 7 -23 0 -21 3 -25 9 -14 6 8 7 18 5 22 -3 4 -1 8
4 8 6 0 13 -27 17 -60 4 -33 10 -60 13 -60 4 0 7 43 6 95 0 51 3 92 8 89 4 -3
8 -11 8 -19 0 -7 7 -16 16 -19 8 -3 12 -10 9 -16 -3 -5 -3 -16 1 -22 6 -9 10
-5 15 12 6 23 7 22 9 -10 1 -19 2 -43 1 -52 -3 -30 28 -9 38 26 8 26 10 18 12
-49 1 -44 4 -68 6 -52 2 15 9 25 14 22 5 -4 10 2 10 12 1 10 7 -9 14 -42 8
-35 13 -49 14 -32 1 15 6 27 11 27 6 0 10 10 10 22 0 37 9 14 13 -35 6 -65 17
-71 18 -11 1 27 4 39 6 27 5 -27 23 -31 24 -5 0 9 6 -5 13 -33 l12 -50 8 65
c11 86 13 101 20 108 3 3 6 -20 6 -52 0 -36 4 -55 10 -51 6 3 10 17 10 31 0
14 4 22 10 19 6 -3 11 5 11 19 2 45 5 51 17 48 7 -1 12 9 12 25 0 57 17 -3 22
-79 3 -46 10 -41 15 10 5 49 11 96 14 102 1 3 5 -8 9 -25 l7 -30 8 32 c4 18
12 30 17 27 5 -3 12 3 15 15 7 27 33 27 40 1 8 -30 20 -24 27 15 5 24 11 33
21 28 8 -3 15 0 15 7 0 7 7 10 15 6 9 -3 18 1 21 9 4 8 14 15 24 15 11 0 22 5
25 10 3 6 17 10 31 10 13 0 24 5 24 10 0 6 -9 10 -20 10 -25 0 -73 21 -83 37
-4 7 -14 10 -22 7 -8 -4 -15 -1 -15 6 0 7 -6 10 -14 7 -10 -4 -16 5 -20 29 -7
37 -26 47 -26 14 0 -27 -36 -27 -43 1 -3 12 -10 18 -16 14 -10 -5 -16 14 -12
38 0 4 -4 7 -9 7 -5 0 -11 -12 -11 -27 -1 -16 -7 5 -14 45 -13 82 -24 102 -26
49 -2 -65 -4 -75 -11 -83 -5 -4 -8 2 -8 14 0 15 -4 20 -16 15 -12 -4 -15 0
-14 18 4 42 0 60 -10 54 -5 -3 -10 3 -10 14 0 12 -4 21 -10 21 -9 0 -14 -38
-11 -80 3 -48 -19 36 -25 95 l-7 70 -13 -50 c-7 -27 -13 -42 -13 -32 -2 28
-21 19 -23 -10 -1 -16 -4 -1 -8 32 -4 33 -8 53 -9 45z m-427 -235 c-4 -8 -8
-15 -10 -15 -2 0 -4 7 -4 15 0 8 4 15 10 15 5 0 7 -7 4 -15z"/>
</g>
</svg>
